<mxfile host="app.diagrams.net" agent="Mozilla/5.0 (Windows NT 10.0; Win64; x64) AppleWebKit/537.36 (KHTML, like Gecko) Chrome/129.0.0.0 Safari/537.36" version="24.7.17">
  <diagram name="Página-1" id="u5Sa0Eoo0pZsa4n35-ZW">
    <mxGraphModel dx="1674" dy="746" grid="1" gridSize="10" guides="1" tooltips="1" connect="1" arrows="1" fold="1" page="1" pageScale="1" pageWidth="827" pageHeight="1169" math="0" shadow="0">
      <root>
        <mxCell id="0" />
        <mxCell id="1" parent="0" />
        <mxCell id="42WK5gdYS-XNuR64WFm7-1" value="&lt;p style=&quot;margin:0px;margin-top:4px;text-align:center;&quot;&gt;&lt;b&gt;&lt;font style=&quot;vertical-align: inherit;&quot;&gt;&lt;font style=&quot;vertical-align: inherit;&quot;&gt;&lt;font style=&quot;vertical-align: inherit;&quot;&gt;&lt;font style=&quot;vertical-align: inherit;&quot;&gt;&lt;font style=&quot;vertical-align: inherit;&quot;&gt;&lt;font style=&quot;vertical-align: inherit;&quot;&gt;&lt;font style=&quot;vertical-align: inherit;&quot;&gt;&lt;font style=&quot;vertical-align: inherit;&quot;&gt;&lt;font style=&quot;vertical-align: inherit;&quot;&gt;&lt;font style=&quot;vertical-align: inherit;&quot;&gt;Usuário&lt;/font&gt;&lt;/font&gt;&lt;/font&gt;&lt;/font&gt;&lt;/font&gt;&lt;/font&gt;&lt;/font&gt;&lt;/font&gt;&lt;/font&gt;&lt;/font&gt;&lt;/b&gt;&lt;/p&gt;&lt;hr size=&quot;1&quot; style=&quot;border-style:solid;&quot;&gt;&lt;p style=&quot;margin:0px;margin-left:4px;&quot;&gt;&lt;font style=&quot;vertical-align: inherit;&quot;&gt;&lt;font style=&quot;vertical-align: inherit;&quot;&gt;&lt;font style=&quot;vertical-align: inherit;&quot;&gt;&lt;font style=&quot;vertical-align: inherit;&quot;&gt;&lt;font style=&quot;vertical-align: inherit;&quot;&gt;&lt;font style=&quot;vertical-align: inherit;&quot;&gt;&lt;font style=&quot;vertical-align: inherit;&quot;&gt;&lt;font style=&quot;vertical-align: inherit;&quot;&gt;- identificação: int&lt;/font&gt;&lt;/font&gt;&lt;/font&gt;&lt;/font&gt;&lt;/font&gt;&lt;/font&gt;&lt;/font&gt;&lt;/font&gt;&lt;/p&gt;&lt;p style=&quot;margin:0px;margin-left:4px;&quot;&gt;&lt;font style=&quot;vertical-align: inherit;&quot;&gt;&lt;font style=&quot;vertical-align: inherit;&quot;&gt;&lt;font style=&quot;vertical-align: inherit;&quot;&gt;&lt;font style=&quot;vertical-align: inherit;&quot;&gt;&lt;font style=&quot;vertical-align: inherit;&quot;&gt;&lt;font style=&quot;vertical-align: inherit;&quot;&gt;&lt;font style=&quot;vertical-align: inherit;&quot;&gt;&lt;font style=&quot;vertical-align: inherit;&quot;&gt;&lt;font style=&quot;vertical-align: inherit;&quot;&gt;&lt;font style=&quot;vertical-align: inherit;&quot;&gt;- nome: String&lt;/font&gt;&lt;/font&gt;&lt;/font&gt;&lt;/font&gt;&lt;/font&gt;&lt;/font&gt;&lt;/font&gt;&lt;/font&gt;&lt;/font&gt;&lt;/font&gt;&lt;/p&gt;&lt;p style=&quot;margin:0px;margin-left:4px;&quot;&gt;&lt;font style=&quot;vertical-align: inherit;&quot;&gt;&lt;font style=&quot;vertical-align: inherit;&quot;&gt;&lt;font style=&quot;vertical-align: inherit;&quot;&gt;&lt;font style=&quot;vertical-align: inherit;&quot;&gt;&lt;font style=&quot;vertical-align: inherit;&quot;&gt;&lt;font style=&quot;vertical-align: inherit;&quot;&gt;&lt;font style=&quot;vertical-align: inherit;&quot;&gt;&lt;font style=&quot;vertical-align: inherit;&quot;&gt;&lt;font style=&quot;vertical-align: inherit;&quot;&gt;&lt;font style=&quot;vertical-align: inherit;&quot;&gt;&lt;font style=&quot;vertical-align: inherit;&quot;&gt;&lt;font style=&quot;vertical-align: inherit;&quot;&gt;- e-mail: String&lt;/font&gt;&lt;/font&gt;&lt;/font&gt;&lt;/font&gt;&lt;/font&gt;&lt;/font&gt;&lt;/font&gt;&lt;/font&gt;&lt;/font&gt;&lt;/font&gt;&lt;/font&gt;&lt;/font&gt;&lt;/p&gt;&lt;p style=&quot;margin:0px;margin-left:4px;&quot;&gt;&lt;font style=&quot;vertical-align: inherit;&quot;&gt;&lt;font style=&quot;vertical-align: inherit;&quot;&gt;&lt;font style=&quot;vertical-align: inherit;&quot;&gt;&lt;font style=&quot;vertical-align: inherit;&quot;&gt;&lt;font style=&quot;vertical-align: inherit;&quot;&gt;&lt;font style=&quot;vertical-align: inherit;&quot;&gt;&lt;font style=&quot;vertical-align: inherit;&quot;&gt;&lt;font style=&quot;vertical-align: inherit;&quot;&gt;&lt;font style=&quot;vertical-align: inherit;&quot;&gt;&lt;font style=&quot;vertical-align: inherit;&quot;&gt;&lt;font style=&quot;vertical-align: inherit;&quot;&gt;&lt;font style=&quot;vertical-align: inherit;&quot;&gt;- senha: String&lt;/font&gt;&lt;/font&gt;&lt;/font&gt;&lt;/font&gt;&lt;/font&gt;&lt;/font&gt;&lt;/font&gt;&lt;/font&gt;&lt;/font&gt;&lt;/font&gt;&lt;/font&gt;&lt;/font&gt;&lt;/p&gt;&lt;p style=&quot;margin:0px;margin-left:4px;&quot;&gt;&lt;font style=&quot;vertical-align: inherit;&quot;&gt;&lt;font style=&quot;vertical-align: inherit;&quot;&gt;&lt;font style=&quot;vertical-align: inherit;&quot;&gt;&lt;font style=&quot;vertical-align: inherit;&quot;&gt;&lt;font style=&quot;vertical-align: inherit;&quot;&gt;&lt;font style=&quot;vertical-align: inherit;&quot;&gt;&lt;font style=&quot;vertical-align: inherit;&quot;&gt;&lt;font style=&quot;vertical-align: inherit;&quot;&gt;&lt;font style=&quot;vertical-align: inherit;&quot;&gt;&lt;font style=&quot;vertical-align: inherit;&quot;&gt;&lt;font style=&quot;vertical-align: inherit;&quot;&gt;&lt;font style=&quot;vertical-align: inherit;&quot;&gt;- Permissoes: ArrayList&amp;lt;String&amp;gt;&lt;/font&gt;&lt;/font&gt;&lt;/font&gt;&lt;/font&gt;&lt;/font&gt;&lt;/font&gt;&lt;/font&gt;&lt;/font&gt;&lt;/font&gt;&lt;/font&gt;&lt;/font&gt;&lt;/font&gt;&lt;/p&gt;&lt;p style=&quot;margin:0px;margin-left:4px;&quot;&gt;&lt;font style=&quot;vertical-align: inherit;&quot;&gt;&lt;font style=&quot;vertical-align: inherit;&quot;&gt;&lt;font style=&quot;vertical-align: inherit;&quot;&gt;&lt;font style=&quot;vertical-align: inherit;&quot;&gt;&lt;font style=&quot;vertical-align: inherit;&quot;&gt;&lt;font style=&quot;vertical-align: inherit;&quot;&gt;&lt;font style=&quot;vertical-align: inherit;&quot;&gt;&lt;font style=&quot;vertical-align: inherit;&quot;&gt;&lt;font style=&quot;vertical-align: inherit;&quot;&gt;&lt;font style=&quot;vertical-align: inherit;&quot;&gt;&lt;font style=&quot;vertical-align: inherit;&quot;&gt;&lt;font style=&quot;vertical-align: inherit;&quot;&gt;&lt;font style=&quot;vertical-align: inherit;&quot;&gt;&lt;font style=&quot;vertical-align: inherit;&quot;&gt;- tipo: String&lt;/font&gt;&lt;/font&gt;&lt;/font&gt;&lt;/font&gt;&lt;/font&gt;&lt;/font&gt;&lt;/font&gt;&lt;/font&gt;&lt;/font&gt;&lt;/font&gt;&lt;/font&gt;&lt;/font&gt;&lt;/font&gt;&lt;/font&gt;&lt;/p&gt;&lt;hr size=&quot;1&quot; style=&quot;border-style:solid;&quot;&gt;&lt;p style=&quot;margin: 0px 0px 0px 4px;&quot;&gt;&lt;span style=&quot;background-color: initial;&quot;&gt;+ login(email : String, senha : String): Sessão&lt;/span&gt;&lt;br&gt;&lt;/p&gt;&lt;p style=&quot;margin: 0px 0px 0px 4px;&quot;&gt;&lt;font style=&quot;vertical-align: inherit;&quot;&gt;&lt;font style=&quot;vertical-align: inherit;&quot;&gt;&lt;font style=&quot;vertical-align: inherit;&quot;&gt;+ Logout(email : String, senha : String): Sessão&lt;/font&gt;&lt;/font&gt;&lt;br&gt;&lt;font style=&quot;vertical-align: inherit;&quot;&gt;&lt;font style=&quot;vertical-align: inherit;&quot;&gt;+ RecuperarSenha(email : String): Sessão&lt;/font&gt;&lt;/font&gt;&lt;br&gt;&lt;font style=&quot;vertical-align: inherit;&quot;&gt;&lt;font style=&quot;vertical-align: inherit;&quot;&gt;+ TrocarSenha(senhaAntiga : String, senhaNova:&lt;/font&gt;&lt;/font&gt;&lt;br&gt;&lt;font style=&quot;vertical-align: inherit;&quot;&gt;&lt;font style=&quot;vertical-align: inherit;&quot;&gt;String): Sessão&lt;/font&gt;&lt;/font&gt;&lt;br&gt;&lt;font style=&quot;vertical-align: inherit;&quot;&gt;&lt;font style=&quot;vertical-align: inherit;&quot;&gt;+ Cadastrar (e-mail: String, senha: String): Sessão&lt;/font&gt;&lt;/font&gt;&lt;/font&gt;&lt;/p&gt;" style="verticalAlign=top;align=left;overflow=fill;html=1;whiteSpace=wrap;" parent="1" vertex="1">
          <mxGeometry x="24.5" y="870" width="240" height="280" as="geometry" />
        </mxCell>
        <mxCell id="42WK5gdYS-XNuR64WFm7-2" value="&lt;p style=&quot;margin:0px;margin-top:4px;text-align:center;&quot;&gt;&lt;b&gt;&lt;font style=&quot;vertical-align: inherit;&quot;&gt;&lt;font style=&quot;vertical-align: inherit;&quot;&gt;&lt;font style=&quot;vertical-align: inherit;&quot;&gt;&lt;font style=&quot;vertical-align: inherit;&quot;&gt;&lt;font style=&quot;vertical-align: inherit;&quot;&gt;&lt;font style=&quot;vertical-align: inherit;&quot;&gt;Passageiro&lt;/font&gt;&lt;/font&gt;&lt;/font&gt;&lt;/font&gt;&lt;/font&gt;&lt;/font&gt;&lt;/b&gt;&lt;/p&gt;&lt;hr size=&quot;1&quot; style=&quot;border-style:solid;&quot;&gt;&lt;p style=&quot;margin:0px;margin-left:4px;&quot;&gt;&lt;font style=&quot;vertical-align: inherit;&quot;&gt;&lt;font style=&quot;vertical-align: inherit;&quot;&gt;&lt;font style=&quot;vertical-align: inherit;&quot;&gt;&lt;font style=&quot;vertical-align: inherit;&quot;&gt;- Alertas: ArrayList&amp;lt;Alerta&amp;gt;&lt;/font&gt;&lt;/font&gt;&lt;/font&gt;&lt;/font&gt;&lt;/p&gt;&lt;hr size=&quot;1&quot; style=&quot;border-style:solid;&quot;&gt;&lt;p style=&quot;margin: 0px 0px 0px 4px;&quot;&gt;&lt;font style=&quot;vertical-align: inherit;&quot;&gt;+ fornecerInformacao(informacao: String): String&lt;/font&gt;&lt;/p&gt;&lt;p style=&quot;margin: 0px 0px 0px 4px;&quot;&gt;&lt;font style=&quot;vertical-align: inherit;&quot;&gt;+ receberAlerta(alerta: String): String&amp;nbsp;&lt;/font&gt;&lt;/p&gt;" style="verticalAlign=top;align=left;overflow=fill;html=1;whiteSpace=wrap;" parent="1" vertex="1">
          <mxGeometry x="599.7199999999999" y="790" width="209" height="107.5" as="geometry" />
        </mxCell>
        <mxCell id="42WK5gdYS-XNuR64WFm7-4" style="edgeStyle=orthogonalEdgeStyle;rounded=0;orthogonalLoop=1;jettySize=auto;html=1;strokeColor=default;align=center;verticalAlign=middle;fontFamily=Helvetica;fontSize=11;fontColor=default;labelBackgroundColor=default;endArrow=block;endFill=0;endSize=16;" parent="1" source="42WK5gdYS-XNuR64WFm7-3" target="42WK5gdYS-XNuR64WFm7-1" edge="1">
          <mxGeometry relative="1" as="geometry">
            <Array as="points">
              <mxPoint x="450" y="1110" />
              <mxPoint x="450" y="1110" />
            </Array>
          </mxGeometry>
        </mxCell>
        <mxCell id="-Qu5C3JqyGeNmt4MwooB-29" value="Extende" style="edgeLabel;html=1;align=center;verticalAlign=middle;resizable=0;points=[];" parent="42WK5gdYS-XNuR64WFm7-4" vertex="1" connectable="0">
          <mxGeometry x="-0.2849" relative="1" as="geometry">
            <mxPoint as="offset" />
          </mxGeometry>
        </mxCell>
        <mxCell id="42WK5gdYS-XNuR64WFm7-3" value="&lt;p style=&quot;margin:0px;margin-top:4px;text-align:center;&quot;&gt;&lt;b&gt;&lt;font style=&quot;vertical-align: inherit;&quot;&gt;&lt;font style=&quot;vertical-align: inherit;&quot;&gt;Funcionario&lt;/font&gt;&lt;/font&gt;&lt;/b&gt;&lt;/p&gt;&lt;hr size=&quot;1&quot; style=&quot;border-style:solid;&quot;&gt;&lt;p style=&quot;margin:0px;margin-left:4px;&quot;&gt;&lt;span style=&quot;background-color: initial;&quot;&gt;- cargo: String&lt;/span&gt;&lt;/p&gt;&lt;hr size=&quot;1&quot; style=&quot;border-style:solid;&quot;&gt;&lt;p style=&quot;margin:0px;margin-left:4px;&quot;&gt;+ receberInformacao(Alerta : String): String&lt;br&gt;&lt;/p&gt;" style="verticalAlign=top;align=left;overflow=fill;html=1;whiteSpace=wrap;" parent="1" vertex="1">
          <mxGeometry x="612.56" y="1059" width="198" height="91" as="geometry" />
        </mxCell>
        <mxCell id="42WK5gdYS-XNuR64WFm7-7" value="&lt;p style=&quot;margin:0px;margin-top:4px;text-align:center;&quot;&gt;&lt;b&gt;&lt;font style=&quot;vertical-align: inherit;&quot;&gt;&lt;font style=&quot;vertical-align: inherit;&quot;&gt;&lt;font style=&quot;vertical-align: inherit;&quot;&gt;&lt;font style=&quot;vertical-align: inherit;&quot;&gt;Alerta&lt;/font&gt;&lt;/font&gt;&lt;/font&gt;&lt;/font&gt;&lt;/b&gt;&lt;/p&gt;&lt;hr size=&quot;1&quot; style=&quot;border-style:solid;&quot;&gt;&lt;p style=&quot;margin:0px;margin-left:4px;&quot;&gt;&lt;font style=&quot;vertical-align: inherit;&quot;&gt;&lt;font style=&quot;vertical-align: inherit;&quot;&gt;&lt;font style=&quot;vertical-align: inherit;&quot;&gt;&lt;font style=&quot;vertical-align: inherit;&quot;&gt;- id: int&lt;/font&gt;&lt;/font&gt;&lt;/font&gt;&lt;/font&gt;&lt;/p&gt;&lt;p style=&quot;margin:0px;margin-left:4px;&quot;&gt;&lt;font style=&quot;vertical-align: inherit;&quot;&gt;&lt;font style=&quot;vertical-align: inherit;&quot;&gt;&lt;font style=&quot;vertical-align: inherit;&quot;&gt;&lt;font style=&quot;vertical-align: inherit;&quot;&gt;&lt;font style=&quot;vertical-align: inherit;&quot;&gt;&lt;font style=&quot;vertical-align: inherit;&quot;&gt;- descrição: String&lt;/font&gt;&lt;/font&gt;&lt;/font&gt;&lt;/font&gt;&lt;/font&gt;&lt;/font&gt;&lt;/p&gt;&lt;p style=&quot;margin:0px;margin-left:4px;&quot;&gt;&lt;font style=&quot;vertical-align: inherit;&quot;&gt;&lt;font style=&quot;vertical-align: inherit;&quot;&gt;&lt;font style=&quot;vertical-align: inherit;&quot;&gt;&lt;font style=&quot;vertical-align: inherit;&quot;&gt;&lt;font style=&quot;vertical-align: inherit;&quot;&gt;&lt;font style=&quot;vertical-align: inherit;&quot;&gt;&lt;font style=&quot;vertical-align: inherit;&quot;&gt;&lt;font style=&quot;vertical-align: inherit;&quot;&gt;- tipo: String&lt;/font&gt;&lt;/font&gt;&lt;/font&gt;&lt;/font&gt;&lt;/font&gt;&lt;/font&gt;&lt;/font&gt;&lt;/font&gt;&lt;/p&gt;&lt;hr size=&quot;1&quot; style=&quot;border-style:solid;&quot;&gt;&lt;p style=&quot;margin:0px;margin-left:4px;&quot;&gt;+ receberProblema(): String&lt;/p&gt;&lt;p style=&quot;margin:0px;margin-left:4px;&quot;&gt;+ enviarAlertaPorblema(alerta: String): String&lt;br&gt;&lt;/p&gt;" style="verticalAlign=top;align=left;overflow=fill;html=1;whiteSpace=wrap;" parent="1" vertex="1">
          <mxGeometry x="54.5" y="620" width="180" height="130" as="geometry" />
        </mxCell>
        <mxCell id="42WK5gdYS-XNuR64WFm7-8" value="&lt;p style=&quot;margin:0px;margin-top:4px;text-align:center;&quot;&gt;&lt;b&gt;Problema&lt;/b&gt;&lt;/p&gt;&lt;hr size=&quot;1&quot; style=&quot;border-style:solid;&quot;&gt;&lt;p style=&quot;margin:0px;margin-left:4px;&quot;&gt;&lt;font style=&quot;vertical-align: inherit;&quot;&gt;&lt;font style=&quot;vertical-align: inherit;&quot;&gt;&lt;font style=&quot;vertical-align: inherit;&quot;&gt;&lt;font style=&quot;vertical-align: inherit;&quot;&gt;- id: int&lt;/font&gt;&lt;/font&gt;&lt;/font&gt;&lt;/font&gt;&lt;/p&gt;&lt;p style=&quot;margin:0px;margin-left:4px;&quot;&gt;&lt;font style=&quot;vertical-align: inherit;&quot;&gt;&lt;font style=&quot;vertical-align: inherit;&quot;&gt;&lt;font style=&quot;vertical-align: inherit;&quot;&gt;&lt;font style=&quot;vertical-align: inherit;&quot;&gt;&lt;font style=&quot;vertical-align: inherit;&quot;&gt;&lt;font style=&quot;vertical-align: inherit;&quot;&gt;- descricao: String&lt;/font&gt;&lt;/font&gt;&lt;/font&gt;&lt;/font&gt;&lt;/font&gt;&lt;/font&gt;&lt;/p&gt;&lt;p style=&quot;margin:0px;margin-left:4px;&quot;&gt;&lt;font style=&quot;vertical-align: inherit;&quot;&gt;&lt;font style=&quot;vertical-align: inherit;&quot;&gt;&lt;font style=&quot;vertical-align: inherit;&quot;&gt;&lt;font style=&quot;vertical-align: inherit;&quot;&gt;&lt;font style=&quot;vertical-align: inherit;&quot;&gt;&lt;font style=&quot;vertical-align: inherit;&quot;&gt;&lt;font style=&quot;vertical-align: inherit;&quot;&gt;&lt;font style=&quot;vertical-align: inherit;&quot;&gt;- severidade: String&lt;/font&gt;&lt;/font&gt;&lt;/font&gt;&lt;/font&gt;&lt;/font&gt;&lt;/font&gt;&lt;/font&gt;&lt;/font&gt;&lt;/p&gt;&lt;p style=&quot;margin:0px;margin-left:4px;&quot;&gt;&lt;font style=&quot;vertical-align: inherit;&quot;&gt;&lt;font style=&quot;vertical-align: inherit;&quot;&gt;&lt;font style=&quot;vertical-align: inherit;&quot;&gt;&lt;font style=&quot;vertical-align: inherit;&quot;&gt;&lt;font style=&quot;vertical-align: inherit;&quot;&gt;&lt;font style=&quot;vertical-align: inherit;&quot;&gt;&lt;font style=&quot;vertical-align: inherit;&quot;&gt;&lt;font style=&quot;vertical-align: inherit;&quot;&gt;- local: String&lt;/font&gt;&lt;/font&gt;&lt;/font&gt;&lt;/font&gt;&lt;/font&gt;&lt;/font&gt;&lt;/font&gt;&lt;/font&gt;&lt;/p&gt;&lt;hr size=&quot;1&quot; style=&quot;border-style:solid;&quot;&gt;&lt;p style=&quot;margin:0px;margin-left:4px;&quot;&gt;+ enviarProblema(problema: String): String&lt;br&gt;&lt;/p&gt;&lt;p style=&quot;margin:0px;margin-left:4px;&quot;&gt;+ descreverProblema(): String&lt;/p&gt;" style="verticalAlign=top;align=left;overflow=fill;html=1;whiteSpace=wrap;" parent="1" vertex="1">
          <mxGeometry x="310" y="400" width="170" height="150" as="geometry" />
        </mxCell>
        <mxCell id="42WK5gdYS-XNuR64WFm7-10" value="&lt;p style=&quot;margin:0px;margin-top:4px;text-align:center;&quot;&gt;&lt;b&gt;Notificacao&lt;/b&gt;&lt;/p&gt;&lt;hr size=&quot;1&quot; style=&quot;border-style:solid;&quot;&gt;&lt;p style=&quot;margin:0px;margin-left:4px;&quot;&gt;&lt;font style=&quot;vertical-align: inherit;&quot;&gt;&lt;font style=&quot;vertical-align: inherit;&quot;&gt;&lt;font style=&quot;vertical-align: inherit;&quot;&gt;&lt;font style=&quot;vertical-align: inherit;&quot;&gt;- id: int&lt;/font&gt;&lt;/font&gt;&lt;/font&gt;&lt;/font&gt;&lt;/p&gt;&lt;p style=&quot;margin:0px;margin-left:4px;&quot;&gt;&lt;font style=&quot;vertical-align: inherit;&quot;&gt;&lt;font style=&quot;vertical-align: inherit;&quot;&gt;&lt;font style=&quot;vertical-align: inherit;&quot;&gt;&lt;font style=&quot;vertical-align: inherit;&quot;&gt;&lt;font style=&quot;vertical-align: inherit;&quot;&gt;&lt;font style=&quot;vertical-align: inherit;&quot;&gt;- mensagem: String&lt;/font&gt;&lt;/font&gt;&lt;/font&gt;&lt;/font&gt;&lt;/font&gt;&lt;/font&gt;&lt;/p&gt;&lt;p style=&quot;margin:0px;margin-left:4px;&quot;&gt;&lt;font style=&quot;vertical-align: inherit;&quot;&gt;&lt;font style=&quot;vertical-align: inherit;&quot;&gt;&lt;font style=&quot;vertical-align: inherit;&quot;&gt;&lt;font style=&quot;vertical-align: inherit;&quot;&gt;&lt;font style=&quot;vertical-align: inherit;&quot;&gt;&lt;font style=&quot;vertical-align: inherit;&quot;&gt;&lt;font style=&quot;vertical-align: inherit;&quot;&gt;&lt;font style=&quot;vertical-align: inherit;&quot;&gt;&lt;font style=&quot;vertical-align: inherit;&quot;&gt;&lt;font style=&quot;vertical-align: inherit;&quot;&gt;- dataHora: DateTime&lt;/font&gt;&lt;/font&gt;&lt;/font&gt;&lt;/font&gt;&lt;/font&gt;&lt;/font&gt;&lt;/font&gt;&lt;/font&gt;&lt;/font&gt;&lt;/font&gt;&lt;/p&gt;&lt;hr size=&quot;1&quot; style=&quot;border-style:solid;&quot;&gt;&lt;p style=&quot;margin:0px;margin-left:4px;&quot;&gt;+ recebeAlertaProblema(): String&lt;br&gt;&lt;/p&gt;&lt;p style=&quot;margin:0px;margin-left:4px;&quot;&gt;+ enviarNotificacao(notificacao: String): String&lt;br&gt;&lt;/p&gt;&lt;p style=&quot;margin:0px;margin-left:4px;&quot;&gt;+ exibirNotificacao(): String&lt;/p&gt;" style="verticalAlign=top;align=left;overflow=fill;html=1;whiteSpace=wrap;" parent="1" vertex="1">
          <mxGeometry x="300" y="605" width="231" height="150" as="geometry" />
        </mxCell>
        <mxCell id="qvjX2Y1deXQ7MCLXoF_K-4" value="&lt;p style=&quot;margin:0px;margin-top:4px;text-align:center;&quot;&gt;&lt;b&gt;Assistente&lt;/b&gt;&lt;/p&gt;&lt;hr size=&quot;1&quot; style=&quot;border-style:solid;&quot;&gt;&lt;p style=&quot;margin:0px;margin-left:4px;&quot;&gt;- modeloLLM: Object&lt;br&gt;&lt;/p&gt;&lt;p style=&quot;margin:0px;margin-left:4px;&quot;&gt;- baseURL&lt;/p&gt;&lt;hr size=&quot;1&quot; style=&quot;border-style:solid;&quot;&gt;&lt;p style=&quot;margin: 0px 0px 0px 4px;&quot;&gt;&lt;font style=&quot;vertical-align: inherit;&quot;&gt;+ gerarNotificacao(): String&lt;/font&gt;&lt;br&gt;&lt;font style=&quot;vertical-align: inherit;&quot;&gt;+ fornecerAssistência(): String&lt;/font&gt;&lt;/p&gt;&lt;p style=&quot;margin: 0px 0px 0px 4px;&quot;&gt;&lt;font style=&quot;vertical-align: inherit;&quot;&gt;+ fazerRecomendações(): String&lt;/font&gt;&lt;/p&gt;" style="verticalAlign=top;align=left;overflow=fill;html=1;whiteSpace=wrap;fillColor=none;" parent="1" vertex="1">
          <mxGeometry x="618.7199999999999" y="920" width="190" height="120" as="geometry" />
        </mxCell>
        <mxCell id="qvjX2Y1deXQ7MCLXoF_K-8" value="&lt;p style=&quot;margin:0px;margin-top:4px;text-align:center;&quot;&gt;&lt;b&gt;GerenciadorDeUsuarios&lt;/b&gt;&lt;br&gt;&lt;/p&gt;&lt;hr size=&quot;1&quot; style=&quot;border-style:solid;&quot;&gt;&lt;p style=&quot;margin:0px;margin-left:4px;&quot;&gt;- usuarios: ArrayList&amp;lt;Usuario&amp;gt;&lt;/p&gt;&lt;hr size=&quot;1&quot; style=&quot;border-style:solid;&quot;&gt;&lt;p style=&quot;margin: 0px 0px 0px 4px;&quot;&gt;&lt;font style=&quot;vertical-align: inherit;&quot;&gt;+ adicionarUsuário(usuario: String): void&lt;/font&gt;&lt;/p&gt;&lt;p style=&quot;margin: 0px 0px 0px 4px;&quot;&gt;&lt;font style=&quot;vertical-align: inherit;&quot;&gt;+ removerUsuário(usuario: String): void&lt;/font&gt;&lt;/p&gt;&lt;p style=&quot;margin: 0px 0px 0px 4px;&quot;&gt;&lt;font style=&quot;vertical-align: inherit;&quot;&gt;+ buscarUsuário(usuario: String):&amp;nbsp; void&lt;/font&gt;&lt;/p&gt;" style="verticalAlign=top;align=left;overflow=fill;html=1;whiteSpace=wrap;" parent="1" vertex="1">
          <mxGeometry x="350.0000000000001" y="950" width="226" height="110" as="geometry" />
        </mxCell>
        <mxCell id="O6sB2SaBtI4EaiZlMqS2-9" style="edgeStyle=orthogonalEdgeStyle;rounded=0;orthogonalLoop=1;jettySize=auto;html=1;" edge="1" parent="1" source="rwGJcpOlAmYJWwXlt4JA-7" target="NWMbtkxijJN_0-v5v0av-10">
          <mxGeometry relative="1" as="geometry" />
        </mxCell>
        <mxCell id="O6sB2SaBtI4EaiZlMqS2-12" style="edgeStyle=orthogonalEdgeStyle;rounded=0;orthogonalLoop=1;jettySize=auto;html=1;" edge="1" parent="1" source="rwGJcpOlAmYJWwXlt4JA-7" target="O6sB2SaBtI4EaiZlMqS2-1">
          <mxGeometry relative="1" as="geometry">
            <Array as="points">
              <mxPoint x="402" y="220" />
              <mxPoint x="185" y="220" />
            </Array>
          </mxGeometry>
        </mxCell>
        <mxCell id="rwGJcpOlAmYJWwXlt4JA-7" value="&lt;p style=&quot;margin:0px;margin-top:4px;text-align:center;&quot;&gt;&lt;b&gt;Trem&lt;/b&gt;&lt;/p&gt;&lt;hr size=&quot;1&quot; style=&quot;border-style:solid;&quot;&gt;&lt;p style=&quot;margin:0px;margin-left:4px;&quot;&gt;&lt;span style=&quot;background-color: initial;&quot;&gt;- origem: String&lt;/span&gt;&lt;br&gt;&lt;/p&gt;&lt;p style=&quot;margin:0px;margin-left:4px;&quot;&gt;- destino: String&lt;/p&gt;&lt;p style=&quot;margin:0px;margin-left:4px;&quot;&gt;- capacidade maxima: int&lt;/p&gt;&lt;p style=&quot;margin:0px;margin-left:4px;&quot;&gt;- capacidade atual: int&lt;/p&gt;&lt;hr size=&quot;1&quot; style=&quot;border-style:solid;&quot;&gt;&lt;p style=&quot;margin:0px;margin-left:4px;&quot;&gt;+ method(): Type&lt;/p&gt;" style="verticalAlign=top;align=left;overflow=fill;html=1;whiteSpace=wrap;" parent="1" vertex="1">
          <mxGeometry x="332" y="230" width="139.44" height="130" as="geometry" />
        </mxCell>
        <mxCell id="O6sB2SaBtI4EaiZlMqS2-11" style="edgeStyle=orthogonalEdgeStyle;rounded=0;orthogonalLoop=1;jettySize=auto;html=1;" edge="1" parent="1" source="rwGJcpOlAmYJWwXlt4JA-8" target="O6sB2SaBtI4EaiZlMqS2-1">
          <mxGeometry relative="1" as="geometry">
            <Array as="points">
              <mxPoint x="670" y="40" />
            </Array>
          </mxGeometry>
        </mxCell>
        <mxCell id="rwGJcpOlAmYJWwXlt4JA-8" value="&lt;p style=&quot;margin:0px;margin-top:4px;text-align:center;&quot;&gt;&lt;b&gt;Estação&lt;/b&gt;&lt;/p&gt;&lt;hr size=&quot;1&quot; style=&quot;border-style:solid;&quot;&gt;&lt;p style=&quot;margin:0px;margin-left:4px;&quot;&gt;- nome: String&lt;/p&gt;&lt;p style=&quot;margin:0px;margin-left:4px;&quot;&gt;- localizacao:&amp;nbsp; String&lt;/p&gt;&lt;hr size=&quot;1&quot; style=&quot;border-style:solid;&quot;&gt;&lt;p style=&quot;margin:0px;margin-left:4px;&quot;&gt;+ method(): Type&lt;/p&gt;" style="verticalAlign=top;align=left;overflow=fill;html=1;whiteSpace=wrap;" parent="1" vertex="1">
          <mxGeometry x="589.9999999999999" y="240" width="160" height="90" as="geometry" />
        </mxCell>
        <mxCell id="rwGJcpOlAmYJWwXlt4JA-9" value="&lt;p style=&quot;margin:0px;margin-top:4px;text-align:center;&quot;&gt;&lt;b&gt;Linha&lt;/b&gt;&lt;/p&gt;&lt;hr size=&quot;1&quot; style=&quot;border-style:solid;&quot;&gt;&lt;p style=&quot;margin:0px;margin-left:4px;&quot;&gt;- nome: String&lt;/p&gt;&lt;p style=&quot;margin:0px;margin-left:4px;&quot;&gt;- horario: String&lt;/p&gt;&lt;p style=&quot;margin:0px;margin-left:4px;&quot;&gt;- cor: String&lt;/p&gt;&lt;p style=&quot;margin:0px;margin-left:4px;&quot;&gt;- numero: String&lt;/p&gt;&lt;hr size=&quot;1&quot; style=&quot;border-style:solid;&quot;&gt;&lt;p style=&quot;margin:0px;margin-left:4px;&quot;&gt;+ method(): Type&lt;/p&gt;" style="verticalAlign=top;align=left;overflow=fill;html=1;whiteSpace=wrap;" parent="1" vertex="1">
          <mxGeometry x="624.2199999999999" y="400" width="160" height="120" as="geometry" />
        </mxCell>
        <mxCell id="-Qu5C3JqyGeNmt4MwooB-3" value="" style="endArrow=open;endFill=1;endSize=12;html=1;rounded=0;" parent="1" source="rwGJcpOlAmYJWwXlt4JA-9" target="rwGJcpOlAmYJWwXlt4JA-8" edge="1">
          <mxGeometry width="160" relative="1" as="geometry">
            <mxPoint x="787.56" y="532" as="sourcePoint" />
            <mxPoint x="775.1199999999999" y="259.9950034650035" as="targetPoint" />
            <Array as="points">
              <mxPoint x="810" y="460" />
              <mxPoint x="810" y="285" />
            </Array>
          </mxGeometry>
        </mxCell>
        <mxCell id="-Qu5C3JqyGeNmt4MwooB-4" value="Contém" style="edgeLabel;html=1;align=center;verticalAlign=middle;resizable=0;points=[];rotation=0;" parent="-Qu5C3JqyGeNmt4MwooB-3" vertex="1" connectable="0">
          <mxGeometry x="0.226" relative="1" as="geometry">
            <mxPoint x="-4" y="22" as="offset" />
          </mxGeometry>
        </mxCell>
        <mxCell id="-Qu5C3JqyGeNmt4MwooB-26" value="" style="endArrow=open;endFill=1;endSize=12;html=1;rounded=0;" parent="1" target="42WK5gdYS-XNuR64WFm7-1" edge="1" source="qvjX2Y1deXQ7MCLXoF_K-8">
          <mxGeometry width="160" relative="1" as="geometry">
            <mxPoint x="576" y="915" as="sourcePoint" />
            <mxPoint x="526" y="1095" as="targetPoint" />
            <Array as="points" />
          </mxGeometry>
        </mxCell>
        <mxCell id="-Qu5C3JqyGeNmt4MwooB-27" value="Contém" style="edgeLabel;html=1;align=center;verticalAlign=middle;resizable=0;points=[];" parent="-Qu5C3JqyGeNmt4MwooB-26" vertex="1" connectable="0">
          <mxGeometry x="-0.3294" y="2" relative="1" as="geometry">
            <mxPoint x="-2" y="-2" as="offset" />
          </mxGeometry>
        </mxCell>
        <mxCell id="-Qu5C3JqyGeNmt4MwooB-30" value="Extende" style="endArrow=block;endSize=16;endFill=0;html=1;rounded=0;" parent="1" source="42WK5gdYS-XNuR64WFm7-7" target="42WK5gdYS-XNuR64WFm7-10" edge="1">
          <mxGeometry width="160" relative="1" as="geometry">
            <mxPoint x="105.06" y="750" as="sourcePoint" />
            <mxPoint x="265.06" y="750" as="targetPoint" />
          </mxGeometry>
        </mxCell>
        <mxCell id="-Qu5C3JqyGeNmt4MwooB-31" value="Extende" style="endArrow=block;endSize=16;endFill=0;html=1;rounded=0;entryX=0.42;entryY=0.033;entryDx=0;entryDy=0;entryPerimeter=0;" parent="1" target="42WK5gdYS-XNuR64WFm7-10" edge="1" source="42WK5gdYS-XNuR64WFm7-8">
          <mxGeometry width="160" relative="1" as="geometry">
            <mxPoint x="129.56" y="530" as="sourcePoint" />
            <mxPoint x="395" y="600" as="targetPoint" />
          </mxGeometry>
        </mxCell>
        <mxCell id="-Qu5C3JqyGeNmt4MwooB-32" value="" style="endArrow=none;html=1;edgeStyle=orthogonalEdgeStyle;rounded=0;" parent="1" source="42WK5gdYS-XNuR64WFm7-8" target="rwGJcpOlAmYJWwXlt4JA-8" edge="1">
          <mxGeometry relative="1" as="geometry">
            <mxPoint x="208.28" y="220" as="sourcePoint" />
            <mxPoint x="618.8399999999999" y="226.62" as="targetPoint" />
            <Array as="points">
              <mxPoint x="550" y="460" />
              <mxPoint x="550" y="370" />
              <mxPoint x="670" y="370" />
            </Array>
          </mxGeometry>
        </mxCell>
        <mxCell id="-Qu5C3JqyGeNmt4MwooB-44" value="Associado" style="edgeLabel;html=1;align=center;verticalAlign=middle;resizable=0;points=[];" parent="-Qu5C3JqyGeNmt4MwooB-32" vertex="1" connectable="0">
          <mxGeometry x="-0.7106" y="2" relative="1" as="geometry">
            <mxPoint x="-9" y="2" as="offset" />
          </mxGeometry>
        </mxCell>
        <mxCell id="-Qu5C3JqyGeNmt4MwooB-35" value="" style="endArrow=none;html=1;edgeStyle=orthogonalEdgeStyle;rounded=0;" parent="1" source="42WK5gdYS-XNuR64WFm7-8" edge="1" target="NWMbtkxijJN_0-v5v0av-1">
          <mxGeometry relative="1" as="geometry">
            <mxPoint x="310" y="500" as="sourcePoint" />
            <mxPoint x="617.9199999999997" y="280" as="targetPoint" />
            <Array as="points">
              <mxPoint x="190" y="500" />
            </Array>
          </mxGeometry>
        </mxCell>
        <mxCell id="-Qu5C3JqyGeNmt4MwooB-43" value="Associado" style="edgeLabel;html=1;align=center;verticalAlign=middle;resizable=0;points=[];" parent="-Qu5C3JqyGeNmt4MwooB-35" vertex="1" connectable="0">
          <mxGeometry x="-0.8004" y="-1" relative="1" as="geometry">
            <mxPoint x="-93" y="-89" as="offset" />
          </mxGeometry>
        </mxCell>
        <mxCell id="-Qu5C3JqyGeNmt4MwooB-38" value="" style="endArrow=none;html=1;edgeStyle=orthogonalEdgeStyle;rounded=0;" parent="1" source="42WK5gdYS-XNuR64WFm7-8" target="rwGJcpOlAmYJWwXlt4JA-9" edge="1">
          <mxGeometry relative="1" as="geometry">
            <mxPoint x="370.56" y="460" as="sourcePoint" />
            <mxPoint x="530.56" y="460" as="targetPoint" />
            <Array as="points">
              <mxPoint x="600" y="500" />
              <mxPoint x="600" y="500" />
            </Array>
          </mxGeometry>
        </mxCell>
        <mxCell id="-Qu5C3JqyGeNmt4MwooB-42" value="Associado" style="edgeLabel;html=1;align=center;verticalAlign=middle;resizable=0;points=[];" parent="-Qu5C3JqyGeNmt4MwooB-38" vertex="1" connectable="0">
          <mxGeometry x="-0.8585" y="-1" relative="1" as="geometry">
            <mxPoint x="80" y="-1" as="offset" />
          </mxGeometry>
        </mxCell>
        <mxCell id="-Qu5C3JqyGeNmt4MwooB-49" value="" style="endArrow=none;html=1;edgeStyle=orthogonalEdgeStyle;rounded=0;" parent="1" target="rwGJcpOlAmYJWwXlt4JA-7" edge="1" source="rwGJcpOlAmYJWwXlt4JA-8">
          <mxGeometry relative="1" as="geometry">
            <mxPoint x="770.6599999999999" y="250" as="sourcePoint" />
            <mxPoint x="770.56" y="300" as="targetPoint" />
            <Array as="points">
              <mxPoint x="530" y="280" />
              <mxPoint x="530" y="280" />
            </Array>
          </mxGeometry>
        </mxCell>
        <mxCell id="-Qu5C3JqyGeNmt4MwooB-52" value="Associado" style="edgeLabel;html=1;align=center;verticalAlign=middle;resizable=0;points=[];" parent="-Qu5C3JqyGeNmt4MwooB-49" vertex="1" connectable="0">
          <mxGeometry x="-0.0667" y="1" relative="1" as="geometry">
            <mxPoint x="-120" y="-1" as="offset" />
          </mxGeometry>
        </mxCell>
        <mxCell id="NWMbtkxijJN_0-v5v0av-1" value="&lt;p style=&quot;margin:0px;margin-top:4px;text-align:center;&quot;&gt;&lt;b&gt;&lt;font style=&quot;vertical-align: inherit;&quot;&gt;&lt;font style=&quot;vertical-align: inherit;&quot;&gt;&lt;font style=&quot;vertical-align: inherit;&quot;&gt;&lt;font style=&quot;vertical-align: inherit;&quot;&gt;Vagão&lt;/font&gt;&lt;/font&gt;&lt;/font&gt;&lt;/font&gt;&lt;/b&gt;&lt;/p&gt;&lt;hr size=&quot;1&quot; style=&quot;border-style:solid;&quot;&gt;&lt;p style=&quot;margin:0px;margin-left:4px;&quot;&gt;&lt;font style=&quot;vertical-align: inherit;&quot;&gt;&lt;font style=&quot;vertical-align: inherit;&quot;&gt;&lt;font style=&quot;vertical-align: inherit;&quot;&gt;&lt;font style=&quot;vertical-align: inherit;&quot;&gt;- carro: String&lt;/font&gt;&lt;/font&gt;&lt;/font&gt;&lt;/font&gt;&lt;/p&gt;&lt;p style=&quot;margin:0px;margin-left:4px;&quot;&gt;&lt;font style=&quot;vertical-align: inherit;&quot;&gt;&lt;font style=&quot;vertical-align: inherit;&quot;&gt;&lt;font style=&quot;vertical-align: inherit;&quot;&gt;&lt;font style=&quot;vertical-align: inherit;&quot;&gt;- capacidade máxima: int&lt;/font&gt;&lt;/font&gt;&lt;/font&gt;&lt;/font&gt;&lt;/p&gt;&lt;p style=&quot;margin:0px;margin-left:4px;&quot;&gt;&lt;font style=&quot;vertical-align: inherit;&quot;&gt;&lt;font style=&quot;vertical-align: inherit;&quot;&gt;&lt;font style=&quot;vertical-align: inherit;&quot;&gt;&lt;font style=&quot;vertical-align: inherit;&quot;&gt;- capacidade atual: int&lt;/font&gt;&lt;/font&gt;&lt;/font&gt;&lt;/font&gt;&lt;/p&gt;&lt;hr size=&quot;1&quot; style=&quot;border-style:solid;&quot;&gt;&lt;p style=&quot;margin:0px;margin-left:4px;&quot;&gt;&lt;font style=&quot;vertical-align: inherit;&quot;&gt;&lt;font style=&quot;vertical-align: inherit;&quot;&gt;&lt;font style=&quot;vertical-align: inherit;&quot;&gt;&lt;font style=&quot;vertical-align: inherit;&quot;&gt;+ método(): Tipo&lt;/font&gt;&lt;/font&gt;&lt;/font&gt;&lt;/font&gt;&lt;/p&gt;" style="verticalAlign=top;align=left;overflow=fill;html=1;whiteSpace=wrap;" parent="1" vertex="1">
          <mxGeometry x="115.78" y="240" width="148.72" height="110" as="geometry" />
        </mxCell>
        <mxCell id="NWMbtkxijJN_0-v5v0av-2" value="" style="endArrow=open;endFill=1;endSize=12;html=1;rounded=0;" parent="1" source="rwGJcpOlAmYJWwXlt4JA-7" target="NWMbtkxijJN_0-v5v0av-1" edge="1">
          <mxGeometry width="160" relative="1" as="geometry">
            <mxPoint x="630" y="490" as="sourcePoint" />
            <mxPoint x="550" y="490" as="targetPoint" />
          </mxGeometry>
        </mxCell>
        <mxCell id="NWMbtkxijJN_0-v5v0av-5" value="Contém" style="edgeLabel;html=1;align=center;verticalAlign=middle;resizable=0;points=[];" parent="NWMbtkxijJN_0-v5v0av-2" vertex="1" connectable="0">
          <mxGeometry x="-0.4859" y="-2" relative="1" as="geometry">
            <mxPoint x="-21" y="2" as="offset" />
          </mxGeometry>
        </mxCell>
        <mxCell id="NWMbtkxijJN_0-v5v0av-6" value="" style="endArrow=none;html=1;edgeStyle=orthogonalEdgeStyle;rounded=0;" parent="1" target="rwGJcpOlAmYJWwXlt4JA-7" edge="1" source="42WK5gdYS-XNuR64WFm7-8">
          <mxGeometry relative="1" as="geometry">
            <mxPoint x="310.56" y="300" as="sourcePoint" />
            <mxPoint x="620.56" y="340" as="targetPoint" />
            <Array as="points">
              <mxPoint x="412.56" y="443" />
              <mxPoint x="412.56" y="335" />
            </Array>
          </mxGeometry>
        </mxCell>
        <mxCell id="NWMbtkxijJN_0-v5v0av-7" value="Associado" style="edgeLabel;html=1;align=center;verticalAlign=middle;resizable=0;points=[];" parent="NWMbtkxijJN_0-v5v0av-6" vertex="1" connectable="0">
          <mxGeometry x="-0.8585" y="-1" relative="1" as="geometry">
            <mxPoint x="-1" y="-17" as="offset" />
          </mxGeometry>
        </mxCell>
        <mxCell id="NWMbtkxijJN_0-v5v0av-10" value="&lt;p style=&quot;margin:0px;margin-top:4px;text-align:center;&quot;&gt;&lt;b&gt;Parada&lt;/b&gt;&lt;/p&gt;&lt;hr size=&quot;1&quot; style=&quot;border-style:solid;&quot;&gt;&lt;p style=&quot;margin:0px;margin-left:4px;&quot;&gt;+ field: Type&lt;/p&gt;&lt;hr size=&quot;1&quot; style=&quot;border-style:solid;&quot;&gt;&lt;p style=&quot;margin:0px;margin-left:4px;&quot;&gt;+ method(): Type&lt;/p&gt;" style="verticalAlign=top;align=left;overflow=fill;html=1;whiteSpace=wrap;" parent="1" vertex="1">
          <mxGeometry x="321.7200000000001" y="90" width="160" height="90" as="geometry" />
        </mxCell>
        <mxCell id="O6sB2SaBtI4EaiZlMqS2-13" style="edgeStyle=orthogonalEdgeStyle;rounded=0;orthogonalLoop=1;jettySize=auto;html=1;" edge="1" parent="1" source="O6sB2SaBtI4EaiZlMqS2-1" target="NWMbtkxijJN_0-v5v0av-10">
          <mxGeometry relative="1" as="geometry" />
        </mxCell>
        <mxCell id="O6sB2SaBtI4EaiZlMqS2-14" style="edgeStyle=orthogonalEdgeStyle;rounded=0;orthogonalLoop=1;jettySize=auto;html=1;" edge="1" parent="1" source="O6sB2SaBtI4EaiZlMqS2-1" target="42WK5gdYS-XNuR64WFm7-7">
          <mxGeometry relative="1" as="geometry">
            <Array as="points">
              <mxPoint x="70" y="100" />
            </Array>
          </mxGeometry>
        </mxCell>
        <mxCell id="O6sB2SaBtI4EaiZlMqS2-1" value="&lt;p style=&quot;margin:0px;margin-top:4px;text-align:center;&quot;&gt;&lt;b&gt;&lt;font style=&quot;vertical-align: inherit;&quot;&gt;&lt;font style=&quot;vertical-align: inherit;&quot;&gt;&lt;font style=&quot;vertical-align: inherit;&quot;&gt;&lt;font style=&quot;vertical-align: inherit;&quot;&gt;Viagem&lt;/font&gt;&lt;/font&gt;&lt;/font&gt;&lt;/font&gt;&lt;/b&gt;&lt;/p&gt;&lt;hr size=&quot;1&quot; style=&quot;border-style:solid;&quot;&gt;&lt;p style=&quot;margin:0px;margin-left:4px;&quot;&gt;&lt;font style=&quot;vertical-align: inherit;&quot;&gt;&lt;font style=&quot;vertical-align: inherit;&quot;&gt;- numeroTrem: String&lt;/font&gt;&lt;/font&gt;&lt;/p&gt;&lt;p style=&quot;margin:0px;margin-left:4px;&quot;&gt;&lt;font style=&quot;vertical-align: inherit;&quot;&gt;&lt;font style=&quot;vertical-align: inherit;&quot;&gt;&lt;font style=&quot;vertical-align: inherit;&quot;&gt;&lt;font style=&quot;vertical-align: inherit;&quot;&gt;- duracao: int&lt;/font&gt;&lt;/font&gt;&lt;/font&gt;&lt;/font&gt;&lt;/p&gt;&lt;p style=&quot;margin:0px;margin-left:4px;&quot;&gt;&lt;font style=&quot;vertical-align: inherit;&quot;&gt;&lt;font style=&quot;vertical-align: inherit;&quot;&gt;&lt;font style=&quot;vertical-align: inherit;&quot;&gt;&lt;font style=&quot;vertical-align: inherit;&quot;&gt;&lt;font style=&quot;vertical-align: inherit;&quot;&gt;&lt;font style=&quot;vertical-align: inherit;&quot;&gt;- estacaoOrigem: String&lt;/font&gt;&lt;/font&gt;&lt;/font&gt;&lt;/font&gt;&lt;/font&gt;&lt;/font&gt;&lt;/p&gt;&lt;p style=&quot;margin:0px;margin-left:4px;&quot;&gt;&lt;font style=&quot;vertical-align: inherit;&quot;&gt;&lt;font style=&quot;vertical-align: inherit;&quot;&gt;&lt;font style=&quot;vertical-align: inherit;&quot;&gt;&lt;font style=&quot;vertical-align: inherit;&quot;&gt;&lt;font style=&quot;vertical-align: inherit;&quot;&gt;&lt;font style=&quot;vertical-align: inherit;&quot;&gt;&lt;font style=&quot;vertical-align: inherit;&quot;&gt;&lt;font style=&quot;vertical-align: inherit;&quot;&gt;- estacaoDestino: String&lt;/font&gt;&lt;/font&gt;&lt;/font&gt;&lt;/font&gt;&lt;/font&gt;&lt;/font&gt;&lt;/font&gt;&lt;/font&gt;&lt;/p&gt;&lt;p style=&quot;margin:0px;margin-left:4px;&quot;&gt;&lt;font style=&quot;vertical-align: inherit;&quot;&gt;&lt;font style=&quot;vertical-align: inherit;&quot;&gt;&lt;font style=&quot;vertical-align: inherit;&quot;&gt;&lt;font style=&quot;vertical-align: inherit;&quot;&gt;&lt;font style=&quot;vertical-align: inherit;&quot;&gt;&lt;font style=&quot;vertical-align: inherit;&quot;&gt;&lt;font style=&quot;vertical-align: inherit;&quot;&gt;&lt;font style=&quot;vertical-align: inherit;&quot;&gt;&lt;font style=&quot;vertical-align: inherit;&quot;&gt;&lt;font style=&quot;vertical-align: inherit;&quot;&gt;- horaPartida: String&lt;/font&gt;&lt;/font&gt;&lt;/font&gt;&lt;/font&gt;&lt;/font&gt;&lt;/font&gt;&lt;/font&gt;&lt;/font&gt;&lt;/font&gt;&lt;/font&gt;&lt;/p&gt;&lt;p style=&quot;margin:0px;margin-left:4px;&quot;&gt;&lt;font style=&quot;vertical-align: inherit;&quot;&gt;&lt;font style=&quot;vertical-align: inherit;&quot;&gt;&lt;font style=&quot;vertical-align: inherit;&quot;&gt;&lt;font style=&quot;vertical-align: inherit;&quot;&gt;&lt;font style=&quot;vertical-align: inherit;&quot;&gt;&lt;font style=&quot;vertical-align: inherit;&quot;&gt;&lt;font style=&quot;vertical-align: inherit;&quot;&gt;&lt;font style=&quot;vertical-align: inherit;&quot;&gt;&lt;font style=&quot;vertical-align: inherit;&quot;&gt;&lt;font style=&quot;vertical-align: inherit;&quot;&gt;&lt;font style=&quot;vertical-align: inherit;&quot;&gt;&lt;font style=&quot;vertical-align: inherit;&quot;&gt;- horaChegada: String&lt;/font&gt;&lt;/font&gt;&lt;/font&gt;&lt;/font&gt;&lt;/font&gt;&lt;/font&gt;&lt;/font&gt;&lt;/font&gt;&lt;/font&gt;&lt;/font&gt;&lt;/font&gt;&lt;/font&gt;&lt;/p&gt;&lt;p style=&quot;margin:0px;margin-left:4px;&quot;&gt;&lt;font style=&quot;vertical-align: inherit;&quot;&gt;&lt;font style=&quot;vertical-align: inherit;&quot;&gt;- numeroParadas: int&lt;/font&gt;&lt;/font&gt;&lt;/p&gt;&lt;p style=&quot;margin:0px;margin-left:4px;&quot;&gt;&lt;font style=&quot;vertical-align: inherit;&quot;&gt;&lt;font style=&quot;vertical-align: inherit;&quot;&gt;&lt;font style=&quot;vertical-align: inherit;&quot;&gt;&lt;font style=&quot;vertical-align: inherit;&quot;&gt;- tipoPassagem: String&lt;/font&gt;&lt;/font&gt;&lt;/font&gt;&lt;/font&gt;&lt;/p&gt;&lt;hr size=&quot;1&quot; style=&quot;border-style:solid;&quot;&gt;&lt;p style=&quot;margin:0px;margin-left:4px;&quot;&gt;&lt;font style=&quot;vertical-align: inherit;&quot;&gt;&lt;font style=&quot;vertical-align: inherit;&quot;&gt;&lt;font style=&quot;vertical-align: inherit;&quot;&gt;&lt;font style=&quot;vertical-align: inherit;&quot;&gt;+ método(): Tipo&lt;/font&gt;&lt;/font&gt;&lt;/font&gt;&lt;/font&gt;&lt;/p&gt;" style="verticalAlign=top;align=left;overflow=fill;html=1;whiteSpace=wrap;" vertex="1" parent="1">
          <mxGeometry x="102.5" y="10" width="164" height="180" as="geometry" />
        </mxCell>
        <mxCell id="O6sB2SaBtI4EaiZlMqS2-2" style="edgeStyle=orthogonalEdgeStyle;rounded=0;orthogonalLoop=1;jettySize=auto;html=1;strokeColor=default;align=center;verticalAlign=middle;fontFamily=Helvetica;fontSize=11;fontColor=default;labelBackgroundColor=default;endArrow=block;endFill=0;endSize=16;" edge="1" parent="1">
          <mxGeometry relative="1" as="geometry">
            <Array as="points">
              <mxPoint x="449.5" y="880" />
              <mxPoint x="449.5" y="880" />
            </Array>
            <mxPoint x="600" y="880" as="sourcePoint" />
            <mxPoint x="264.5" y="880" as="targetPoint" />
          </mxGeometry>
        </mxCell>
        <mxCell id="O6sB2SaBtI4EaiZlMqS2-3" value="Extende" style="edgeLabel;html=1;align=center;verticalAlign=middle;resizable=0;points=[];" vertex="1" connectable="0" parent="O6sB2SaBtI4EaiZlMqS2-2">
          <mxGeometry x="-0.2849" relative="1" as="geometry">
            <mxPoint as="offset" />
          </mxGeometry>
        </mxCell>
        <mxCell id="O6sB2SaBtI4EaiZlMqS2-7" value="" style="endArrow=open;endFill=1;endSize=12;html=1;rounded=0;exitX=1;exitY=0.5;exitDx=0;exitDy=0;" edge="1" parent="1" source="42WK5gdYS-XNuR64WFm7-10" target="qvjX2Y1deXQ7MCLXoF_K-7">
          <mxGeometry width="160" relative="1" as="geometry">
            <mxPoint x="40.56" y="325" as="sourcePoint" />
            <mxPoint x="310" y="678" as="targetPoint" />
            <Array as="points" />
          </mxGeometry>
        </mxCell>
        <mxCell id="O6sB2SaBtI4EaiZlMqS2-8" value="Contém" style="edgeLabel;html=1;align=center;verticalAlign=middle;resizable=0;points=[];" vertex="1" connectable="0" parent="O6sB2SaBtI4EaiZlMqS2-7">
          <mxGeometry x="-0.0294" y="-1" relative="1" as="geometry">
            <mxPoint as="offset" />
          </mxGeometry>
        </mxCell>
        <mxCell id="qvjX2Y1deXQ7MCLXoF_K-7" value="&lt;p style=&quot;margin:0px;margin-top:4px;text-align:center;&quot;&gt;&lt;b&gt;Atividade&lt;/b&gt;&lt;/p&gt;&lt;hr size=&quot;1&quot; style=&quot;border-style:solid;&quot;&gt;&lt;p style=&quot;margin:0px;margin-left:4px;&quot;&gt;- notificacoes: ArrayList&amp;lt;Notificacao&amp;gt;&lt;br&gt;&lt;/p&gt;&lt;p style=&quot;margin:0px;margin-left:4px;&quot;&gt;- DataNotificacao: DateTime&lt;/p&gt;&lt;hr size=&quot;1&quot; style=&quot;border-style:solid;&quot;&gt;&lt;p style=&quot;margin: 0px 0px 0px 4px;&quot;&gt;+ armazenarNotificacao(notificacao: String): void&lt;br&gt;&lt;/p&gt;" style="verticalAlign=top;align=left;overflow=fill;html=1;whiteSpace=wrap;" parent="1" vertex="1">
          <mxGeometry x="613.72" y="620" width="200" height="120" as="geometry" />
        </mxCell>
      </root>
    </mxGraphModel>
  </diagram>
</mxfile>
